<svg width="218" height="250" viewBox="0 0 218 250" fill="none" xmlns="http://www.w3.org/2000/svg">
<g opacity="0.15">
<path d="M217.958 1.79385V2.86788H216.553V4.47892H215.616V2.86788H214.21V1.79385H215.616V0.1828H216.553V1.79385H217.958Z" fill="#111029"/>
<path d="M217.958 14.6822V15.7562H216.553V17.3673H215.616V15.7562H214.21V14.6822H215.616V13.0712H216.553V14.6822H217.958Z" fill="#111029"/>
<path d="M217.958 27.5706V28.6446H216.553V30.2557H215.616V28.6446H214.21V27.5706H215.616V25.9595H216.553V27.5706H217.958Z" fill="#111029"/>
<path d="M217.958 40.4589V41.5329H216.553V43.1439H215.616V41.5329H214.21V40.4589H215.616V38.8478H216.553V40.4589H217.958Z" fill="#111029"/>
<path d="M217.958 53.3473V54.4213H216.553V56.0323H215.616V54.4213H214.21V53.3473H215.616V51.7362H216.553V53.3473H217.958Z" fill="#111029"/>
<path d="M217.958 66.2356V67.3096H216.553V68.9207H215.616V67.3096H214.21V66.2356H215.616V64.6246H216.553V66.2356H217.958Z" fill="#111029"/>
<path d="M217.958 79.124V80.198H216.553V81.8091H215.616V80.198H214.21V79.124H215.616V77.5129H216.553V79.124H217.958Z" fill="#111029"/>
<path d="M217.958 92.0123V93.0863H216.553V94.6974H215.616V93.0863H214.21V92.0123H215.616V90.4012H216.553V92.0123H217.958Z" fill="#111029"/>
<path d="M217.958 104.901V105.975H216.553V107.586H215.616V105.975H214.21V104.901H215.616V103.29H216.553V104.901H217.958Z" fill="#111029"/>
<path d="M217.958 117.789V118.863H216.553V120.474H215.616V118.863H214.21V117.789H215.616V116.178H216.553V117.789H217.958Z" fill="#111029"/>
<path d="M217.958 130.677V131.751H216.553V133.362H215.616V131.751H214.21V130.677H215.616V129.066H216.553V130.677H217.958Z" fill="#111029"/>
<path d="M217.958 143.566V144.64H216.553V146.251H215.616V144.64H214.21V143.566H215.616V141.955H216.553V143.566H217.958Z" fill="#111029"/>
<path d="M217.958 156.454V157.528H216.553V159.139H215.616V157.528H214.21V156.454H215.616V154.843H216.553V156.454H217.958Z" fill="#111029"/>
<path d="M217.958 169.342V170.417H216.553V172.028H215.616V170.417H214.21V169.342H215.616V167.731H216.553V169.342H217.958Z" fill="#111029"/>
<path d="M217.958 182.231V183.305H216.553V184.916H215.616V183.305H214.21V182.231H215.616V180.62H216.553V182.231H217.958Z" fill="#111029"/>
<path d="M217.958 195.119V196.193H216.553V197.804H215.616V196.193H214.21V195.119H215.616V193.508H216.553V195.119H217.958Z" fill="#111029"/>
<path d="M217.958 208.007V209.082H216.553V210.693H215.616V209.082H214.21V208.007H215.616V206.396H216.553V208.007H217.958Z" fill="#111029"/>
<path d="M217.958 220.896V221.97H216.553V223.581H215.616V221.97H214.21V220.896H215.616V219.285H216.553V220.896H217.958Z" fill="#111029"/>
<path d="M217.958 233.784V234.858H216.553V236.469H215.616V234.858H214.21V233.784H215.616V232.173H216.553V233.784H217.958Z" fill="#111029"/>
<path d="M217.958 246.673V247.747H216.553V249.358H215.616V247.747H214.21V246.673H215.616V245.062H216.553V246.673H217.958Z" fill="#111029"/>
<path d="M206.715 1.79385V2.86788H205.309V4.47892H204.372V2.86788H202.967V1.79385H204.372V0.1828H205.309V1.79385H206.715Z" fill="#111029"/>
<path d="M206.715 14.6822V15.7562H205.309V17.3673H204.372V15.7562H202.967V14.6822H204.372V13.0712H205.309V14.6822H206.715Z" fill="#111029"/>
<path d="M206.715 27.5706V28.6446H205.309V30.2557H204.372V28.6446H202.967V27.5706H204.372V25.9595H205.309V27.5706H206.715Z" fill="#111029"/>
<path d="M206.715 40.4589V41.5329H205.309V43.1439H204.372V41.5329H202.967V40.4589H204.372V38.8478H205.309V40.4589H206.715Z" fill="#111029"/>
<path d="M206.715 53.3473V54.4213H205.309V56.0323H204.372V54.4213H202.967V53.3473H204.372V51.7362H205.309V53.3473H206.715Z" fill="#111029"/>
<path d="M206.715 66.2356V67.3096H205.309V68.9207H204.372V67.3096H202.967V66.2356H204.372V64.6246H205.309V66.2356H206.715Z" fill="#111029"/>
<path d="M206.715 79.124V80.198H205.309V81.8091H204.372V80.198H202.967V79.124H204.372V77.5129H205.309V79.124H206.715Z" fill="#111029"/>
<path d="M206.715 92.0123V93.0863H205.309V94.6974H204.372V93.0863H202.967V92.0123H204.372V90.4012H205.309V92.0123H206.715Z" fill="#111029"/>
<path d="M206.715 104.901V105.975H205.309V107.586H204.372V105.975H202.967V104.901H204.372V103.29H205.309V104.901H206.715Z" fill="#111029"/>
<path d="M206.715 117.789V118.863H205.309V120.474H204.372V118.863H202.967V117.789H204.372V116.178H205.309V117.789H206.715Z" fill="#111029"/>
<path d="M206.715 130.677V131.751H205.309V133.362H204.372V131.751H202.967V130.677H204.372V129.066H205.309V130.677H206.715Z" fill="#111029"/>
<path d="M206.715 143.566V144.64H205.309V146.251H204.372V144.64H202.967V143.566H204.372V141.955H205.309V143.566H206.715Z" fill="#111029"/>
<path d="M206.715 156.454V157.528H205.309V159.139H204.372V157.528H202.967V156.454H204.372V154.843H205.309V156.454H206.715Z" fill="#111029"/>
<path d="M206.715 169.342V170.417H205.309V172.028H204.372V170.417H202.967V169.342H204.372V167.731H205.309V169.342H206.715Z" fill="#111029"/>
<path d="M206.715 182.231V183.305H205.309V184.916H204.372V183.305H202.967V182.231H204.372V180.62H205.309V182.231H206.715Z" fill="#111029"/>
<path d="M206.715 195.119V196.193H205.309V197.804H204.372V196.193H202.967V195.119H204.372V193.508H205.309V195.119H206.715Z" fill="#111029"/>
<path d="M206.715 208.007V209.082H205.309V210.693H204.372V209.082H202.967V208.007H204.372V206.396H205.309V208.007H206.715Z" fill="#111029"/>
<path d="M206.715 220.896V221.97H205.309V223.581H204.372V221.97H202.967V220.896H204.372V219.285H205.309V220.896H206.715Z" fill="#111029"/>
<path d="M206.715 233.784V234.858H205.309V236.469H204.372V234.858H202.967V233.784H204.372V232.173H205.309V233.784H206.715Z" fill="#111029"/>
<path d="M206.715 246.673V247.747H205.309V249.358H204.372V247.747H202.967V246.673H204.372V245.062H205.309V246.673H206.715Z" fill="#111029"/>
<path d="M195.471 1.79385V2.86788H194.065V4.47892H193.128V2.86788H191.723V1.79385H193.128V0.1828H194.065V1.79385H195.471Z" fill="#111029"/>
<path d="M195.471 14.6822V15.7562H194.065V17.3673H193.128V15.7562H191.723V14.6822H193.128V13.0712H194.065V14.6822H195.471Z" fill="#111029"/>
<path d="M195.471 27.5706V28.6446H194.065V30.2557H193.128V28.6446H191.723V27.5706H193.128V25.9595H194.065V27.5706H195.471Z" fill="#111029"/>
<path d="M195.471 40.4589V41.5329H194.065V43.1439H193.128V41.5329H191.723V40.4589H193.128V38.8478H194.065V40.4589H195.471Z" fill="#111029"/>
<path d="M195.471 53.3473V54.4213H194.065V56.0323H193.128V54.4213H191.723V53.3473H193.128V51.7362H194.065V53.3473H195.471Z" fill="#111029"/>
<path d="M195.471 66.2356V67.3096H194.065V68.9207H193.128V67.3096H191.723V66.2356H193.128V64.6246H194.065V66.2356H195.471Z" fill="#111029"/>
<path d="M195.471 79.124V80.198H194.065V81.8091H193.128V80.198H191.723V79.124H193.128V77.5129H194.065V79.124H195.471Z" fill="#111029"/>
<path d="M195.471 92.0123V93.0863H194.065V94.6974H193.128V93.0863H191.723V92.0123H193.128V90.4012H194.065V92.0123H195.471Z" fill="#111029"/>
<path d="M195.471 104.901V105.975H194.065V107.586H193.128V105.975H191.723V104.901H193.128V103.29H194.065V104.901H195.471Z" fill="#111029"/>
<path d="M195.471 117.789V118.863H194.065V120.474H193.128V118.863H191.723V117.789H193.128V116.178H194.065V117.789H195.471Z" fill="#111029"/>
<path d="M195.471 130.677V131.751H194.065V133.362H193.128V131.751H191.723V130.677H193.128V129.066H194.065V130.677H195.471Z" fill="#111029"/>
<path d="M195.471 143.566V144.64H194.065V146.251H193.128V144.64H191.723V143.566H193.128V141.955H194.065V143.566H195.471Z" fill="#111029"/>
<path d="M195.471 156.454V157.528H194.065V159.139H193.128V157.528H191.723V156.454H193.128V154.843H194.065V156.454H195.471Z" fill="#111029"/>
<path d="M195.471 169.342V170.417H194.065V172.028H193.128V170.417H191.723V169.342H193.128V167.731H194.065V169.342H195.471Z" fill="#111029"/>
<path d="M195.471 182.231V183.305H194.065V184.916H193.128V183.305H191.723V182.231H193.128V180.62H194.065V182.231H195.471Z" fill="#111029"/>
<path d="M195.471 195.119V196.193H194.065V197.804H193.128V196.193H191.723V195.119H193.128V193.508H194.065V195.119H195.471Z" fill="#111029"/>
<path d="M195.471 208.007V209.082H194.065V210.693H193.128V209.082H191.723V208.007H193.128V206.396H194.065V208.007H195.471Z" fill="#111029"/>
<path d="M195.471 220.896V221.97H194.065V223.581H193.128V221.97H191.723V220.896H193.128V219.285H194.065V220.896H195.471Z" fill="#111029"/>
<path d="M195.471 233.784V234.858H194.065V236.469H193.128V234.858H191.723V233.784H193.128V232.173H194.065V233.784H195.471Z" fill="#111029"/>
<path d="M195.471 246.673V247.747H194.065V249.358H193.128V247.747H191.723V246.673H193.128V245.062H194.065V246.673H195.471Z" fill="#111029"/>
<path d="M184.227 1.79385V2.86788H182.822V4.47892H181.885V2.86788H180.479V1.79385H181.885V0.1828H182.822V1.79385H184.227Z" fill="#111029"/>
<path d="M184.227 14.6822V15.7562H182.822V17.3673H181.885V15.7562H180.479V14.6822H181.885V13.0712H182.822V14.6822H184.227Z" fill="#111029"/>
<path d="M184.227 27.5706V28.6446H182.822V30.2557H181.885V28.6446H180.479V27.5706H181.885V25.9595H182.822V27.5706H184.227Z" fill="#111029"/>
<path d="M184.227 40.4589V41.5329H182.822V43.1439H181.885V41.5329H180.479V40.4589H181.885V38.8478H182.822V40.4589H184.227Z" fill="#111029"/>
<path d="M184.227 53.3473V54.4213H182.822V56.0323H181.885V54.4213H180.479V53.3473H181.885V51.7362H182.822V53.3473H184.227Z" fill="#111029"/>
<path d="M184.227 66.2356V67.3096H182.822V68.9207H181.885V67.3096H180.479V66.2356H181.885V64.6246H182.822V66.2356H184.227Z" fill="#111029"/>
<path d="M184.227 79.124V80.198H182.822V81.8091H181.885V80.198H180.479V79.124H181.885V77.5129H182.822V79.124H184.227Z" fill="#111029"/>
<path d="M184.227 92.0123V93.0863H182.822V94.6974H181.885V93.0863H180.479V92.0123H181.885V90.4012H182.822V92.0123H184.227Z" fill="#111029"/>
<path d="M184.227 104.901V105.975H182.822V107.586H181.885V105.975H180.479V104.901H181.885V103.29H182.822V104.901H184.227Z" fill="#111029"/>
<path d="M184.227 117.789V118.863H182.822V120.474H181.885V118.863H180.479V117.789H181.885V116.178H182.822V117.789H184.227Z" fill="#111029"/>
<path d="M184.227 130.677V131.751H182.822V133.362H181.885V131.751H180.479V130.677H181.885V129.066H182.822V130.677H184.227Z" fill="#111029"/>
<path d="M184.227 143.566V144.64H182.822V146.251H181.885V144.64H180.479V143.566H181.885V141.955H182.822V143.566H184.227Z" fill="#111029"/>
<path d="M184.227 156.454V157.528H182.822V159.139H181.885V157.528H180.479V156.454H181.885V154.843H182.822V156.454H184.227Z" fill="#111029"/>
<path d="M184.227 169.342V170.417H182.822V172.028H181.885V170.417H180.479V169.342H181.885V167.731H182.822V169.342H184.227Z" fill="#111029"/>
<path d="M184.227 182.231V183.305H182.822V184.916H181.885V183.305H180.479V182.231H181.885V180.62H182.822V182.231H184.227Z" fill="#111029"/>
<path d="M184.227 195.119V196.193H182.822V197.804H181.885V196.193H180.479V195.119H181.885V193.508H182.822V195.119H184.227Z" fill="#111029"/>
<path d="M184.227 208.007V209.082H182.822V210.693H181.885V209.082H180.479V208.007H181.885V206.396H182.822V208.007H184.227Z" fill="#111029"/>
<path d="M184.227 220.896V221.97H182.822V223.581H181.885V221.97H180.479V220.896H181.885V219.285H182.822V220.896H184.227Z" fill="#111029"/>
<path d="M184.227 233.784V234.858H182.822V236.469H181.885V234.858H180.479V233.784H181.885V232.173H182.822V233.784H184.227Z" fill="#111029"/>
<path d="M184.227 246.673V247.747H182.822V249.358H181.885V247.747H180.479V246.673H181.885V245.062H182.822V246.673H184.227Z" fill="#111029"/>
<path d="M172.984 1.79385V2.86788H171.578V4.47892H170.641V2.86788H169.236V1.79385H170.641V0.1828H171.578V1.79385H172.984Z" fill="#111029"/>
<path d="M172.984 14.6822V15.7562H171.578V17.3673H170.641V15.7562H169.236V14.6822H170.641V13.0712H171.578V14.6822H172.984Z" fill="#111029"/>
<path d="M172.984 27.5706V28.6446H171.578V30.2557H170.641V28.6446H169.236V27.5706H170.641V25.9595H171.578V27.5706H172.984Z" fill="#111029"/>
<path d="M172.984 40.4589V41.5329H171.578V43.1439H170.641V41.5329H169.236V40.4589H170.641V38.8478H171.578V40.4589H172.984Z" fill="#111029"/>
<path d="M172.984 53.3473V54.4213H171.578V56.0323H170.641V54.4213H169.236V53.3473H170.641V51.7362H171.578V53.3473H172.984Z" fill="#111029"/>
<path d="M172.984 66.2356V67.3096H171.578V68.9207H170.641V67.3096H169.236V66.2356H170.641V64.6246H171.578V66.2356H172.984Z" fill="#111029"/>
<path d="M172.984 79.124V80.198H171.578V81.8091H170.641V80.198H169.236V79.124H170.641V77.5129H171.578V79.124H172.984Z" fill="#111029"/>
<path d="M172.984 92.0123V93.0863H171.578V94.6974H170.641V93.0863H169.236V92.0123H170.641V90.4012H171.578V92.0123H172.984Z" fill="#111029"/>
<path d="M172.984 104.901V105.975H171.578V107.586H170.641V105.975H169.236V104.901H170.641V103.29H171.578V104.901H172.984Z" fill="#111029"/>
<path d="M172.984 117.789V118.863H171.578V120.474H170.641V118.863H169.236V117.789H170.641V116.178H171.578V117.789H172.984Z" fill="#111029"/>
<path d="M172.984 130.677V131.751H171.578V133.362H170.641V131.751H169.236V130.677H170.641V129.066H171.578V130.677H172.984Z" fill="#111029"/>
<path d="M172.984 143.566V144.64H171.578V146.251H170.641V144.64H169.236V143.566H170.641V141.955H171.578V143.566H172.984Z" fill="#111029"/>
<path d="M172.984 156.454V157.528H171.578V159.139H170.641V157.528H169.236V156.454H170.641V154.843H171.578V156.454H172.984Z" fill="#111029"/>
<path d="M172.984 169.342V170.417H171.578V172.028H170.641V170.417H169.236V169.342H170.641V167.731H171.578V169.342H172.984Z" fill="#111029"/>
<path d="M172.984 182.231V183.305H171.578V184.916H170.641V183.305H169.236V182.231H170.641V180.62H171.578V182.231H172.984Z" fill="#111029"/>
<path d="M172.984 195.119V196.193H171.578V197.804H170.641V196.193H169.236V195.119H170.641V193.508H171.578V195.119H172.984Z" fill="#111029"/>
<path d="M172.984 208.007V209.082H171.578V210.693H170.641V209.082H169.236V208.007H170.641V206.396H171.578V208.007H172.984Z" fill="#111029"/>
<path d="M172.984 220.896V221.97H171.578V223.581H170.641V221.97H169.236V220.896H170.641V219.285H171.578V220.896H172.984Z" fill="#111029"/>
<path d="M172.984 233.784V234.858H171.578V236.469H170.641V234.858H169.236V233.784H170.641V232.173H171.578V233.784H172.984Z" fill="#111029"/>
<path d="M172.984 246.673V247.747H171.578V249.358H170.641V247.747H169.236V246.673H170.641V245.062H171.578V246.673H172.984Z" fill="#111029"/>
<path d="M161.74 1.79385V2.86788H160.334V4.47892H159.397V2.86788H157.992V1.79385H159.397V0.1828H160.334V1.79385H161.74Z" fill="#111029"/>
<path d="M161.74 14.6822V15.7562H160.334V17.3673H159.397V15.7562H157.992V14.6822H159.397V13.0712H160.334V14.6822H161.74Z" fill="#111029"/>
<path d="M161.74 27.5706V28.6446H160.334V30.2557H159.397V28.6446H157.992V27.5706H159.397V25.9595H160.334V27.5706H161.74Z" fill="#111029"/>
<path d="M161.74 40.4589V41.5329H160.334V43.1439H159.397V41.5329H157.992V40.4589H159.397V38.8478H160.334V40.4589H161.74Z" fill="#111029"/>
<path d="M161.74 53.3473V54.4213H160.334V56.0323H159.397V54.4213H157.992V53.3473H159.397V51.7362H160.334V53.3473H161.74Z" fill="#111029"/>
<path d="M161.74 66.2356V67.3096H160.334V68.9207H159.397V67.3096H157.992V66.2356H159.397V64.6246H160.334V66.2356H161.74Z" fill="#111029"/>
<path d="M161.74 79.124V80.198H160.334V81.8091H159.397V80.198H157.992V79.124H159.397V77.5129H160.334V79.124H161.74Z" fill="#111029"/>
<path d="M161.74 92.0123V93.0863H160.334V94.6974H159.397V93.0863H157.992V92.0123H159.397V90.4012H160.334V92.0123H161.74Z" fill="#111029"/>
<path d="M161.74 104.901V105.975H160.334V107.586H159.397V105.975H157.992V104.901H159.397V103.29H160.334V104.901H161.74Z" fill="#111029"/>
<path d="M161.74 117.789V118.863H160.334V120.474H159.397V118.863H157.992V117.789H159.397V116.178H160.334V117.789H161.74Z" fill="#111029"/>
<path d="M161.74 130.677V131.751H160.334V133.362H159.397V131.751H157.992V130.677H159.397V129.066H160.334V130.677H161.74Z" fill="#111029"/>
<path d="M161.74 143.566V144.64H160.334V146.251H159.397V144.64H157.992V143.566H159.397V141.955H160.334V143.566H161.74Z" fill="#111029"/>
<path d="M161.74 156.454V157.528H160.334V159.139H159.397V157.528H157.992V156.454H159.397V154.843H160.334V156.454H161.74Z" fill="#111029"/>
<path d="M161.74 169.342V170.417H160.334V172.028H159.397V170.417H157.992V169.342H159.397V167.731H160.334V169.342H161.74Z" fill="#111029"/>
<path d="M161.74 182.231V183.305H160.334V184.916H159.397V183.305H157.992V182.231H159.397V180.62H160.334V182.231H161.74Z" fill="#111029"/>
<path d="M161.74 195.119V196.193H160.334V197.804H159.397V196.193H157.992V195.119H159.397V193.508H160.334V195.119H161.74Z" fill="#111029"/>
<path d="M161.74 208.007V209.082H160.334V210.693H159.397V209.082H157.992V208.007H159.397V206.396H160.334V208.007H161.74Z" fill="#111029"/>
<path d="M161.74 220.896V221.97H160.334V223.581H159.397V221.97H157.992V220.896H159.397V219.285H160.334V220.896H161.74Z" fill="#111029"/>
<path d="M161.74 233.784V234.858H160.334V236.469H159.397V234.858H157.992V233.784H159.397V232.173H160.334V233.784H161.74Z" fill="#111029"/>
<path d="M161.74 246.673V247.747H160.334V249.358H159.397V247.747H157.992V246.673H159.397V245.062H160.334V246.673H161.74Z" fill="#111029"/>
<path d="M150.496 1.79385V2.86788H149.091V4.47892H148.154V2.86788H146.748V1.79385H148.154V0.1828H149.091V1.79385H150.496Z" fill="#111029"/>
<path d="M150.496 14.6822V15.7562H149.091V17.3673H148.154V15.7562H146.748V14.6822H148.154V13.0712H149.091V14.6822H150.496Z" fill="#111029"/>
<path d="M150.496 27.5706V28.6446H149.091V30.2557H148.154V28.6446H146.748V27.5706H148.154V25.9595H149.091V27.5706H150.496Z" fill="#111029"/>
<path d="M150.496 40.4589V41.5329H149.091V43.1439H148.154V41.5329H146.748V40.4589H148.154V38.8478H149.091V40.4589H150.496Z" fill="#111029"/>
<path d="M150.496 53.3473V54.4213H149.091V56.0323H148.154V54.4213H146.748V53.3473H148.154V51.7362H149.091V53.3473H150.496Z" fill="#111029"/>
<path d="M150.496 66.2356V67.3096H149.091V68.9207H148.154V67.3096H146.748V66.2356H148.154V64.6246H149.091V66.2356H150.496Z" fill="#111029"/>
<path d="M150.496 79.124V80.198H149.091V81.8091H148.154V80.198H146.748V79.124H148.154V77.5129H149.091V79.124H150.496Z" fill="#111029"/>
<path d="M150.496 92.0123V93.0863H149.091V94.6974H148.154V93.0863H146.748V92.0123H148.154V90.4012H149.091V92.0123H150.496Z" fill="#111029"/>
<path d="M150.496 104.901V105.975H149.091V107.586H148.154V105.975H146.748V104.901H148.154V103.29H149.091V104.901H150.496Z" fill="#111029"/>
<path d="M150.496 117.789V118.863H149.091V120.474H148.154V118.863H146.748V117.789H148.154V116.178H149.091V117.789H150.496Z" fill="#111029"/>
<path d="M150.496 130.677V131.751H149.091V133.362H148.154V131.751H146.748V130.677H148.154V129.066H149.091V130.677H150.496Z" fill="#111029"/>
<path d="M150.496 143.566V144.64H149.091V146.251H148.154V144.64H146.748V143.566H148.154V141.955H149.091V143.566H150.496Z" fill="#111029"/>
<path d="M150.496 156.454V157.528H149.091V159.139H148.154V157.528H146.748V156.454H148.154V154.843H149.091V156.454H150.496Z" fill="#111029"/>
<path d="M150.496 169.342V170.417H149.091V172.028H148.154V170.417H146.748V169.342H148.154V167.731H149.091V169.342H150.496Z" fill="#111029"/>
<path d="M150.496 182.231V183.305H149.091V184.916H148.154V183.305H146.748V182.231H148.154V180.62H149.091V182.231H150.496Z" fill="#111029"/>
<path d="M150.496 195.119V196.193H149.091V197.804H148.154V196.193H146.748V195.119H148.154V193.508H149.091V195.119H150.496Z" fill="#111029"/>
<path d="M150.496 208.007V209.082H149.091V210.693H148.154V209.082H146.748V208.007H148.154V206.396H149.091V208.007H150.496Z" fill="#111029"/>
<path d="M150.496 220.896V221.97H149.091V223.581H148.154V221.97H146.748V220.896H148.154V219.285H149.091V220.896H150.496Z" fill="#111029"/>
<path d="M150.496 233.784V234.858H149.091V236.469H148.154V234.858H146.748V233.784H148.154V232.173H149.091V233.784H150.496Z" fill="#111029"/>
<path d="M150.496 246.673V247.747H149.091V249.358H148.154V247.747H146.748V246.673H148.154V245.062H149.091V246.673H150.496Z" fill="#111029"/>
<path d="M139.252 1.79385V2.86788H137.847V4.47892H136.91V2.86788H135.505V1.79385H136.91V0.1828H137.847V1.79385H139.252Z" fill="#111029"/>
<path d="M139.252 14.6822V15.7562H137.847V17.3673H136.91V15.7562H135.505V14.6822H136.91V13.0712H137.847V14.6822H139.252Z" fill="#111029"/>
<path d="M139.252 27.5706V28.6446H137.847V30.2557H136.91V28.6446H135.505V27.5706H136.91V25.9595H137.847V27.5706H139.252Z" fill="#111029"/>
<path d="M139.252 40.4589V41.5329H137.847V43.1439H136.91V41.5329H135.505V40.4589H136.91V38.8478H137.847V40.4589H139.252Z" fill="#111029"/>
<path d="M139.252 53.3473V54.4213H137.847V56.0323H136.91V54.4213H135.505V53.3473H136.91V51.7362H137.847V53.3473H139.252Z" fill="#111029"/>
<path d="M139.252 66.2356V67.3096H137.847V68.9207H136.91V67.3096H135.505V66.2356H136.91V64.6246H137.847V66.2356H139.252Z" fill="#111029"/>
<path d="M139.252 79.124V80.198H137.847V81.8091H136.91V80.198H135.505V79.124H136.91V77.5129H137.847V79.124H139.252Z" fill="#111029"/>
<path d="M139.252 92.0123V93.0863H137.847V94.6974H136.91V93.0863H135.505V92.0123H136.91V90.4012H137.847V92.0123H139.252Z" fill="#111029"/>
<path d="M139.252 104.901V105.975H137.847V107.586H136.91V105.975H135.505V104.901H136.91V103.29H137.847V104.901H139.252Z" fill="#111029"/>
<path d="M139.252 117.789V118.863H137.847V120.474H136.91V118.863H135.505V117.789H136.91V116.178H137.847V117.789H139.252Z" fill="#111029"/>
<path d="M139.252 130.677V131.751H137.847V133.362H136.91V131.751H135.505V130.677H136.91V129.066H137.847V130.677H139.252Z" fill="#111029"/>
<path d="M139.252 143.566V144.64H137.847V146.251H136.91V144.64H135.505V143.566H136.91V141.955H137.847V143.566H139.252Z" fill="#111029"/>
<path d="M139.252 156.454V157.528H137.847V159.139H136.91V157.528H135.505V156.454H136.91V154.843H137.847V156.454H139.252Z" fill="#111029"/>
<path d="M139.252 169.342V170.417H137.847V172.028H136.91V170.417H135.505V169.342H136.91V167.731H137.847V169.342H139.252Z" fill="#111029"/>
<path d="M139.252 182.231V183.305H137.847V184.916H136.91V183.305H135.505V182.231H136.91V180.62H137.847V182.231H139.252Z" fill="#111029"/>
<path d="M139.252 195.119V196.193H137.847V197.804H136.91V196.193H135.505V195.119H136.91V193.508H137.847V195.119H139.252Z" fill="#111029"/>
<path d="M139.252 208.007V209.082H137.847V210.693H136.91V209.082H135.505V208.007H136.91V206.396H137.847V208.007H139.252Z" fill="#111029"/>
<path d="M139.252 220.896V221.97H137.847V223.581H136.91V221.97H135.505V220.896H136.91V219.285H137.847V220.896H139.252Z" fill="#111029"/>
<path d="M139.252 233.784V234.858H137.847V236.469H136.91V234.858H135.505V233.784H136.91V232.173H137.847V233.784H139.252Z" fill="#111029"/>
<path d="M139.252 246.673V247.747H137.847V249.358H136.91V247.747H135.505V246.673H136.91V245.062H137.847V246.673H139.252Z" fill="#111029"/>
<path d="M128.009 1.79385V2.86788H126.603V4.47892H125.666V2.86788H124.261V1.79385H125.666V0.1828H126.603V1.79385H128.009Z" fill="#111029"/>
<path d="M128.009 14.6822V15.7562H126.603V17.3673H125.666V15.7562H124.261V14.6822H125.666V13.0712H126.603V14.6822H128.009Z" fill="#111029"/>
<path d="M128.009 27.5706V28.6446H126.603V30.2557H125.666V28.6446H124.261V27.5706H125.666V25.9595H126.603V27.5706H128.009Z" fill="#111029"/>
<path d="M128.009 40.4589V41.5329H126.603V43.1439H125.666V41.5329H124.261V40.4589H125.666V38.8478H126.603V40.4589H128.009Z" fill="#111029"/>
<path d="M128.009 53.3473V54.4213H126.603V56.0323H125.666V54.4213H124.261V53.3473H125.666V51.7362H126.603V53.3473H128.009Z" fill="#111029"/>
<path d="M128.009 66.2356V67.3096H126.603V68.9207H125.666V67.3096H124.261V66.2356H125.666V64.6246H126.603V66.2356H128.009Z" fill="#111029"/>
<path d="M128.009 79.124V80.198H126.603V81.8091H125.666V80.198H124.261V79.124H125.666V77.5129H126.603V79.124H128.009Z" fill="#111029"/>
<path d="M128.009 92.0123V93.0863H126.603V94.6974H125.666V93.0863H124.261V92.0123H125.666V90.4012H126.603V92.0123H128.009Z" fill="#111029"/>
<path d="M128.009 104.901V105.975H126.603V107.586H125.666V105.975H124.261V104.901H125.666V103.29H126.603V104.901H128.009Z" fill="#111029"/>
<path d="M128.009 117.789V118.863H126.603V120.474H125.666V118.863H124.261V117.789H125.666V116.178H126.603V117.789H128.009Z" fill="#111029"/>
<path d="M128.009 130.677V131.751H126.603V133.362H125.666V131.751H124.261V130.677H125.666V129.066H126.603V130.677H128.009Z" fill="#111029"/>
<path d="M128.009 143.566V144.64H126.603V146.251H125.666V144.64H124.261V143.566H125.666V141.955H126.603V143.566H128.009Z" fill="#111029"/>
<path d="M128.009 156.454V157.528H126.603V159.139H125.666V157.528H124.261V156.454H125.666V154.843H126.603V156.454H128.009Z" fill="#111029"/>
<path d="M128.009 169.342V170.417H126.603V172.028H125.666V170.417H124.261V169.342H125.666V167.731H126.603V169.342H128.009Z" fill="#111029"/>
<path d="M128.009 182.231V183.305H126.603V184.916H125.666V183.305H124.261V182.231H125.666V180.62H126.603V182.231H128.009Z" fill="#111029"/>
<path d="M128.009 195.119V196.193H126.603V197.804H125.666V196.193H124.261V195.119H125.666V193.508H126.603V195.119H128.009Z" fill="#111029"/>
<path d="M128.009 208.007V209.082H126.603V210.693H125.666V209.082H124.261V208.007H125.666V206.396H126.603V208.007H128.009Z" fill="#111029"/>
<path d="M128.009 220.896V221.97H126.603V223.581H125.666V221.97H124.261V220.896H125.666V219.285H126.603V220.896H128.009Z" fill="#111029"/>
<path d="M128.009 233.784V234.858H126.603V236.469H125.666V234.858H124.261V233.784H125.666V232.173H126.603V233.784H128.009Z" fill="#111029"/>
<path d="M128.009 246.673V247.747H126.603V249.358H125.666V247.747H124.261V246.673H125.666V245.062H126.603V246.673H128.009Z" fill="#111029"/>
<path d="M116.765 1.79385V2.86788H115.36V4.47892H114.423V2.86788H113.017V1.79385H114.423V0.1828H115.36V1.79385H116.765Z" fill="#111029"/>
<path d="M116.765 14.6822V15.7562H115.36V17.3673H114.423V15.7562H113.017V14.6822H114.423V13.0712H115.36V14.6822H116.765Z" fill="#111029"/>
<path d="M116.765 27.5706V28.6446H115.36V30.2557H114.423V28.6446H113.017V27.5706H114.423V25.9595H115.36V27.5706H116.765Z" fill="#111029"/>
<path d="M116.765 40.4589V41.5329H115.36V43.1439H114.423V41.5329H113.017V40.4589H114.423V38.8478H115.36V40.4589H116.765Z" fill="#111029"/>
<path d="M116.765 53.3473V54.4213H115.36V56.0323H114.423V54.4213H113.017V53.3473H114.423V51.7362H115.36V53.3473H116.765Z" fill="#111029"/>
<path d="M116.765 66.2356V67.3096H115.36V68.9207H114.423V67.3096H113.017V66.2356H114.423V64.6246H115.36V66.2356H116.765Z" fill="#111029"/>
<path d="M116.765 79.124V80.198H115.36V81.8091H114.423V80.198H113.017V79.124H114.423V77.5129H115.36V79.124H116.765Z" fill="#111029"/>
<path d="M116.765 92.0123V93.0863H115.36V94.6974H114.423V93.0863H113.017V92.0123H114.423V90.4012H115.36V92.0123H116.765Z" fill="#111029"/>
<path d="M116.765 104.901V105.975H115.36V107.586H114.423V105.975H113.017V104.901H114.423V103.29H115.36V104.901H116.765Z" fill="#111029"/>
<path d="M116.765 117.789V118.863H115.36V120.474H114.423V118.863H113.017V117.789H114.423V116.178H115.36V117.789H116.765Z" fill="#111029"/>
<path d="M116.765 130.677V131.751H115.36V133.362H114.423V131.751H113.017V130.677H114.423V129.066H115.36V130.677H116.765Z" fill="#111029"/>
<path d="M116.765 143.566V144.64H115.36V146.251H114.423V144.64H113.017V143.566H114.423V141.955H115.36V143.566H116.765Z" fill="#111029"/>
<path d="M116.765 156.454V157.528H115.36V159.139H114.423V157.528H113.017V156.454H114.423V154.843H115.36V156.454H116.765Z" fill="#111029"/>
<path d="M116.765 169.342V170.417H115.36V172.028H114.423V170.417H113.017V169.342H114.423V167.731H115.36V169.342H116.765Z" fill="#111029"/>
<path d="M116.765 182.231V183.305H115.36V184.916H114.423V183.305H113.017V182.231H114.423V180.62H115.36V182.231H116.765Z" fill="#111029"/>
<path d="M116.765 195.119V196.193H115.36V197.804H114.423V196.193H113.017V195.119H114.423V193.508H115.36V195.119H116.765Z" fill="#111029"/>
<path d="M116.765 208.007V209.082H115.36V210.693H114.423V209.082H113.017V208.007H114.423V206.396H115.36V208.007H116.765Z" fill="#111029"/>
<path d="M116.765 220.896V221.97H115.36V223.581H114.423V221.97H113.017V220.896H114.423V219.285H115.36V220.896H116.765Z" fill="#111029"/>
<path d="M116.765 233.784V234.858H115.36V236.469H114.423V234.858H113.017V233.784H114.423V232.173H115.36V233.784H116.765Z" fill="#111029"/>
<path d="M116.765 246.673V247.747H115.36V249.358H114.423V247.747H113.017V246.673H114.423V245.062H115.36V246.673H116.765Z" fill="#111029"/>
<path d="M105.521 1.79385V2.86788H104.116V4.47892H103.179V2.86788H101.773V1.79385H103.179V0.1828H104.116V1.79385H105.521Z" fill="#111029"/>
<path d="M105.521 14.6822V15.7562H104.116V17.3673H103.179V15.7562H101.773V14.6822H103.179V13.0712H104.116V14.6822H105.521Z" fill="#111029"/>
<path d="M105.521 27.5706V28.6446H104.116V30.2557H103.179V28.6446H101.773V27.5706H103.179V25.9595H104.116V27.5706H105.521Z" fill="#111029"/>
<path d="M105.521 40.4589V41.5329H104.116V43.1439H103.179V41.5329H101.773V40.4589H103.179V38.8478H104.116V40.4589H105.521Z" fill="#111029"/>
<path d="M105.521 53.3473V54.4213H104.116V56.0323H103.179V54.4213H101.773V53.3473H103.179V51.7362H104.116V53.3473H105.521Z" fill="#111029"/>
<path d="M105.521 66.2356V67.3096H104.116V68.9207H103.179V67.3096H101.773V66.2356H103.179V64.6246H104.116V66.2356H105.521Z" fill="#111029"/>
<path d="M105.521 79.124V80.198H104.116V81.8091H103.179V80.198H101.773V79.124H103.179V77.5129H104.116V79.124H105.521Z" fill="#111029"/>
<path d="M105.521 92.0123V93.0863H104.116V94.6974H103.179V93.0863H101.773V92.0123H103.179V90.4012H104.116V92.0123H105.521Z" fill="#111029"/>
<path d="M105.521 104.901V105.975H104.116V107.586H103.179V105.975H101.773V104.901H103.179V103.29H104.116V104.901H105.521Z" fill="#111029"/>
<path d="M105.521 117.789V118.863H104.116V120.474H103.179V118.863H101.773V117.789H103.179V116.178H104.116V117.789H105.521Z" fill="#111029"/>
<path d="M105.521 130.677V131.751H104.116V133.362H103.179V131.751H101.773V130.677H103.179V129.066H104.116V130.677H105.521Z" fill="#111029"/>
<path d="M105.521 143.566V144.64H104.116V146.251H103.179V144.64H101.773V143.566H103.179V141.955H104.116V143.566H105.521Z" fill="#111029"/>
<path d="M105.521 156.454V157.528H104.116V159.139H103.179V157.528H101.773V156.454H103.179V154.843H104.116V156.454H105.521Z" fill="#111029"/>
<path d="M105.521 169.342V170.417H104.116V172.028H103.179V170.417H101.773V169.342H103.179V167.731H104.116V169.342H105.521Z" fill="#111029"/>
<path d="M105.521 182.231V183.305H104.116V184.916H103.179V183.305H101.773V182.231H103.179V180.62H104.116V182.231H105.521Z" fill="#111029"/>
<path d="M105.521 195.119V196.193H104.116V197.804H103.179V196.193H101.773V195.119H103.179V193.508H104.116V195.119H105.521Z" fill="#111029"/>
<path d="M105.521 208.007V209.082H104.116V210.693H103.179V209.082H101.773V208.007H103.179V206.396H104.116V208.007H105.521Z" fill="#111029"/>
<path d="M105.521 220.896V221.97H104.116V223.581H103.179V221.97H101.773V220.896H103.179V219.285H104.116V220.896H105.521Z" fill="#111029"/>
<path d="M105.521 233.784V234.858H104.116V236.469H103.179V234.858H101.773V233.784H103.179V232.173H104.116V233.784H105.521Z" fill="#111029"/>
<path d="M105.521 246.673V247.747H104.116V249.358H103.179V247.747H101.773V246.673H103.179V245.062H104.116V246.673H105.521Z" fill="#111029"/>
<path d="M94.2777 1.79385V2.86788H92.8722V4.47892H91.9352V2.86788H90.5298V1.79385H91.9352V0.1828H92.8722V1.79385H94.2777Z" fill="#111029"/>
<path d="M94.2777 14.6822V15.7562H92.8722V17.3673H91.9352V15.7562H90.5298V14.6822H91.9352V13.0712H92.8722V14.6822H94.2777Z" fill="#111029"/>
<path d="M94.2777 27.5706V28.6446H92.8722V30.2557H91.9352V28.6446H90.5298V27.5706H91.9352V25.9595H92.8722V27.5706H94.2777Z" fill="#111029"/>
<path d="M94.2777 40.4589V41.5329H92.8722V43.1439H91.9352V41.5329H90.5298V40.4589H91.9352V38.8478H92.8722V40.4589H94.2777Z" fill="#111029"/>
<path d="M94.2777 53.3473V54.4213H92.8722V56.0323H91.9352V54.4213H90.5298V53.3473H91.9352V51.7362H92.8722V53.3473H94.2777Z" fill="#111029"/>
<path d="M94.2777 66.2356V67.3096H92.8722V68.9207H91.9352V67.3096H90.5298V66.2356H91.9352V64.6246H92.8722V66.2356H94.2777Z" fill="#111029"/>
<path d="M94.2777 79.124V80.198H92.8722V81.8091H91.9352V80.198H90.5298V79.124H91.9352V77.5129H92.8722V79.124H94.2777Z" fill="#111029"/>
<path d="M94.2777 92.0123V93.0863H92.8722V94.6974H91.9352V93.0863H90.5298V92.0123H91.9352V90.4012H92.8722V92.0123H94.2777Z" fill="#111029"/>
<path d="M94.2777 104.901V105.975H92.8722V107.586H91.9352V105.975H90.5298V104.901H91.9352V103.29H92.8722V104.901H94.2777Z" fill="#111029"/>
<path d="M94.2777 117.789V118.863H92.8722V120.474H91.9352V118.863H90.5298V117.789H91.9352V116.178H92.8722V117.789H94.2777Z" fill="#111029"/>
<path d="M94.2777 130.677V131.751H92.8722V133.362H91.9352V131.751H90.5298V130.677H91.9352V129.066H92.8722V130.677H94.2777Z" fill="#111029"/>
<path d="M94.2777 143.566V144.64H92.8722V146.251H91.9352V144.64H90.5298V143.566H91.9352V141.955H92.8722V143.566H94.2777Z" fill="#111029"/>
<path d="M94.2777 156.454V157.528H92.8722V159.139H91.9352V157.528H90.5298V156.454H91.9352V154.843H92.8722V156.454H94.2777Z" fill="#111029"/>
<path d="M94.2777 169.342V170.417H92.8722V172.028H91.9352V170.417H90.5298V169.342H91.9352V167.731H92.8722V169.342H94.2777Z" fill="#111029"/>
<path d="M94.2777 182.231V183.305H92.8722V184.916H91.9352V183.305H90.5298V182.231H91.9352V180.62H92.8722V182.231H94.2777Z" fill="#111029"/>
<path d="M94.2777 195.119V196.193H92.8722V197.804H91.9352V196.193H90.5298V195.119H91.9352V193.508H92.8722V195.119H94.2777Z" fill="#111029"/>
<path d="M94.2777 208.007V209.082H92.8722V210.693H91.9352V209.082H90.5298V208.007H91.9352V206.396H92.8722V208.007H94.2777Z" fill="#111029"/>
<path d="M94.2777 220.896V221.97H92.8722V223.581H91.9352V221.97H90.5298V220.896H91.9352V219.285H92.8722V220.896H94.2777Z" fill="#111029"/>
<path d="M94.2777 233.784V234.858H92.8722V236.469H91.9352V234.858H90.5298V233.784H91.9352V232.173H92.8722V233.784H94.2777Z" fill="#111029"/>
<path d="M94.2777 246.673V247.747H92.8722V249.358H91.9352V247.747H90.5298V246.673H91.9352V245.062H92.8722V246.673H94.2777Z" fill="#111029"/>
<path d="M83.0339 1.79385V2.86788H81.6285V4.47892H80.6915V2.86788H79.286V1.79385H80.6915V0.1828H81.6285V1.79385H83.0339Z" fill="#111029"/>
<path d="M83.0339 14.6822V15.7562H81.6285V17.3673H80.6915V15.7562H79.286V14.6822H80.6915V13.0712H81.6285V14.6822H83.0339Z" fill="#111029"/>
<path d="M83.0339 27.5706V28.6446H81.6285V30.2557H80.6915V28.6446H79.286V27.5706H80.6915V25.9595H81.6285V27.5706H83.0339Z" fill="#111029"/>
<path d="M83.0339 40.4589V41.5329H81.6285V43.1439H80.6915V41.5329H79.286V40.4589H80.6915V38.8478H81.6285V40.4589H83.0339Z" fill="#111029"/>
<path d="M83.0339 53.3473V54.4213H81.6285V56.0323H80.6915V54.4213H79.286V53.3473H80.6915V51.7362H81.6285V53.3473H83.0339Z" fill="#111029"/>
<path d="M83.0339 66.2356V67.3096H81.6285V68.9207H80.6915V67.3096H79.286V66.2356H80.6915V64.6246H81.6285V66.2356H83.0339Z" fill="#111029"/>
<path d="M83.0339 79.124V80.198H81.6285V81.8091H80.6915V80.198H79.286V79.124H80.6915V77.5129H81.6285V79.124H83.0339Z" fill="#111029"/>
<path d="M83.0339 92.0123V93.0863H81.6285V94.6974H80.6915V93.0863H79.286V92.0123H80.6915V90.4012H81.6285V92.0123H83.0339Z" fill="#111029"/>
<path d="M83.0339 104.901V105.975H81.6285V107.586H80.6915V105.975H79.286V104.901H80.6915V103.29H81.6285V104.901H83.0339Z" fill="#111029"/>
<path d="M83.0339 117.789V118.863H81.6285V120.474H80.6915V118.863H79.286V117.789H80.6915V116.178H81.6285V117.789H83.0339Z" fill="#111029"/>
<path d="M83.0339 130.677V131.751H81.6285V133.362H80.6915V131.751H79.286V130.677H80.6915V129.066H81.6285V130.677H83.0339Z" fill="#111029"/>
<path d="M83.0339 143.566V144.64H81.6285V146.251H80.6915V144.64H79.286V143.566H80.6915V141.955H81.6285V143.566H83.0339Z" fill="#111029"/>
<path d="M83.0339 156.454V157.528H81.6285V159.139H80.6915V157.528H79.286V156.454H80.6915V154.843H81.6285V156.454H83.0339Z" fill="#111029"/>
<path d="M83.0339 169.342V170.417H81.6285V172.028H80.6915V170.417H79.286V169.342H80.6915V167.731H81.6285V169.342H83.0339Z" fill="#111029"/>
<path d="M83.0339 182.231V183.305H81.6285V184.916H80.6915V183.305H79.286V182.231H80.6915V180.62H81.6285V182.231H83.0339Z" fill="#111029"/>
<path d="M83.0339 195.119V196.193H81.6285V197.804H80.6915V196.193H79.286V195.119H80.6915V193.508H81.6285V195.119H83.0339Z" fill="#111029"/>
<path d="M83.0339 208.007V209.082H81.6285V210.693H80.6915V209.082H79.286V208.007H80.6915V206.396H81.6285V208.007H83.0339Z" fill="#111029"/>
<path d="M83.0339 220.896V221.97H81.6285V223.581H80.6915V221.97H79.286V220.896H80.6915V219.285H81.6285V220.896H83.0339Z" fill="#111029"/>
<path d="M83.0339 233.784V234.858H81.6285V236.469H80.6915V234.858H79.286V233.784H80.6915V232.173H81.6285V233.784H83.0339Z" fill="#111029"/>
<path d="M83.0339 246.673V247.747H81.6285V249.358H80.6915V247.747H79.286V246.673H80.6915V245.062H81.6285V246.673H83.0339Z" fill="#111029"/>
<path d="M71.7899 1.79385V2.86788H70.3844V4.47892H69.4475V2.86788H68.042V1.79385H69.4475V0.1828H70.3844V1.79385H71.7899Z" fill="#111029"/>
<path d="M71.7899 14.6822V15.7562H70.3844V17.3673H69.4475V15.7562H68.042V14.6822H69.4475V13.0712H70.3844V14.6822H71.7899Z" fill="#111029"/>
<path d="M71.7899 27.5706V28.6446H70.3844V30.2557H69.4475V28.6446H68.042V27.5706H69.4475V25.9595H70.3844V27.5706H71.7899Z" fill="#111029"/>
<path d="M71.7899 40.4589V41.5329H70.3844V43.1439H69.4475V41.5329H68.042V40.4589H69.4475V38.8478H70.3844V40.4589H71.7899Z" fill="#111029"/>
<path d="M71.7899 53.3473V54.4213H70.3844V56.0323H69.4475V54.4213H68.042V53.3473H69.4475V51.7362H70.3844V53.3473H71.7899Z" fill="#111029"/>
<path d="M71.7899 66.2356V67.3096H70.3844V68.9207H69.4475V67.3096H68.042V66.2356H69.4475V64.6246H70.3844V66.2356H71.7899Z" fill="#111029"/>
<path d="M71.7899 79.124V80.198H70.3844V81.8091H69.4475V80.198H68.042V79.124H69.4475V77.5129H70.3844V79.124H71.7899Z" fill="#111029"/>
<path d="M71.7899 92.0123V93.0863H70.3844V94.6974H69.4475V93.0863H68.042V92.0123H69.4475V90.4012H70.3844V92.0123H71.7899Z" fill="#111029"/>
<path d="M71.7899 104.901V105.975H70.3844V107.586H69.4475V105.975H68.042V104.901H69.4475V103.29H70.3844V104.901H71.7899Z" fill="#111029"/>
<path d="M71.7899 117.789V118.863H70.3844V120.474H69.4475V118.863H68.042V117.789H69.4475V116.178H70.3844V117.789H71.7899Z" fill="#111029"/>
<path d="M71.7899 130.677V131.751H70.3844V133.362H69.4475V131.751H68.042V130.677H69.4475V129.066H70.3844V130.677H71.7899Z" fill="#111029"/>
<path d="M71.7899 143.566V144.64H70.3844V146.251H69.4475V144.64H68.042V143.566H69.4475V141.955H70.3844V143.566H71.7899Z" fill="#111029"/>
<path d="M71.7899 156.454V157.528H70.3844V159.139H69.4475V157.528H68.042V156.454H69.4475V154.843H70.3844V156.454H71.7899Z" fill="#111029"/>
<path d="M71.7899 169.342V170.417H70.3844V172.028H69.4475V170.417H68.042V169.342H69.4475V167.731H70.3844V169.342H71.7899Z" fill="#111029"/>
<path d="M71.7899 182.231V183.305H70.3844V184.916H69.4475V183.305H68.042V182.231H69.4475V180.62H70.3844V182.231H71.7899Z" fill="#111029"/>
<path d="M71.7899 195.119V196.193H70.3844V197.804H69.4475V196.193H68.042V195.119H69.4475V193.508H70.3844V195.119H71.7899Z" fill="#111029"/>
<path d="M71.7899 208.007V209.082H70.3844V210.693H69.4475V209.082H68.042V208.007H69.4475V206.396H70.3844V208.007H71.7899Z" fill="#111029"/>
<path d="M71.7899 220.896V221.97H70.3844V223.581H69.4475V221.97H68.042V220.896H69.4475V219.285H70.3844V220.896H71.7899Z" fill="#111029"/>
<path d="M71.7899 233.784V234.858H70.3844V236.469H69.4475V234.858H68.042V233.784H69.4475V232.173H70.3844V233.784H71.7899Z" fill="#111029"/>
<path d="M71.7899 246.673V247.747H70.3844V249.358H69.4475V247.747H68.042V246.673H69.4475V245.062H70.3844V246.673H71.7899Z" fill="#111029"/>
<path d="M60.5465 1.79385V2.86788H59.141V4.47892H58.204V2.86788H56.7986V1.79385H58.204V0.1828H59.141V1.79385H60.5465Z" fill="#111029"/>
<path d="M60.5465 14.6822V15.7562H59.141V17.3673H58.204V15.7562H56.7986V14.6822H58.204V13.0712H59.141V14.6822H60.5465Z" fill="#111029"/>
<path d="M60.5465 27.5706V28.6446H59.141V30.2557H58.204V28.6446H56.7986V27.5706H58.204V25.9595H59.141V27.5706H60.5465Z" fill="#111029"/>
<path d="M60.5465 40.4589V41.5329H59.141V43.1439H58.204V41.5329H56.7986V40.4589H58.204V38.8478H59.141V40.4589H60.5465Z" fill="#111029"/>
<path d="M60.5465 53.3473V54.4213H59.141V56.0323H58.204V54.4213H56.7986V53.3473H58.204V51.7362H59.141V53.3473H60.5465Z" fill="#111029"/>
<path d="M60.5465 66.2356V67.3096H59.141V68.9207H58.204V67.3096H56.7986V66.2356H58.204V64.6246H59.141V66.2356H60.5465Z" fill="#111029"/>
<path d="M60.5465 79.124V80.198H59.141V81.8091H58.204V80.198H56.7986V79.124H58.204V77.5129H59.141V79.124H60.5465Z" fill="#111029"/>
<path d="M60.5465 92.0123V93.0863H59.141V94.6974H58.204V93.0863H56.7986V92.0123H58.204V90.4012H59.141V92.0123H60.5465Z" fill="#111029"/>
<path d="M60.5465 104.901V105.975H59.141V107.586H58.204V105.975H56.7986V104.901H58.204V103.29H59.141V104.901H60.5465Z" fill="#111029"/>
<path d="M60.5465 117.789V118.863H59.141V120.474H58.204V118.863H56.7986V117.789H58.204V116.178H59.141V117.789H60.5465Z" fill="#111029"/>
<path d="M60.5465 130.677V131.751H59.141V133.362H58.204V131.751H56.7986V130.677H58.204V129.066H59.141V130.677H60.5465Z" fill="#111029"/>
<path d="M60.5465 143.566V144.64H59.141V146.251H58.204V144.64H56.7986V143.566H58.204V141.955H59.141V143.566H60.5465Z" fill="#111029"/>
<path d="M60.5465 156.454V157.528H59.141V159.139H58.204V157.528H56.7986V156.454H58.204V154.843H59.141V156.454H60.5465Z" fill="#111029"/>
<path d="M60.5465 169.342V170.417H59.141V172.028H58.204V170.417H56.7986V169.342H58.204V167.731H59.141V169.342H60.5465Z" fill="#111029"/>
<path d="M60.5465 182.231V183.305H59.141V184.916H58.204V183.305H56.7986V182.231H58.204V180.62H59.141V182.231H60.5465Z" fill="#111029"/>
<path d="M60.5465 195.119V196.193H59.141V197.804H58.204V196.193H56.7986V195.119H58.204V193.508H59.141V195.119H60.5465Z" fill="#111029"/>
<path d="M60.5465 208.007V209.082H59.141V210.693H58.204V209.082H56.7986V208.007H58.204V206.396H59.141V208.007H60.5465Z" fill="#111029"/>
<path d="M60.5465 220.896V221.97H59.141V223.581H58.204V221.97H56.7986V220.896H58.204V219.285H59.141V220.896H60.5465Z" fill="#111029"/>
<path d="M60.5465 233.784V234.858H59.141V236.469H58.204V234.858H56.7986V233.784H58.204V232.173H59.141V233.784H60.5465Z" fill="#111029"/>
<path d="M60.5465 246.673V247.747H59.141V249.358H58.204V247.747H56.7986V246.673H58.204V245.062H59.141V246.673H60.5465Z" fill="#111029"/>
<path d="M49.3028 1.79385V2.86788H47.8974V4.47892H46.9604V2.86788H45.5549V1.79385H46.9604V0.1828H47.8974V1.79385H49.3028Z" fill="#111029"/>
<path d="M49.3028 14.6822V15.7562H47.8974V17.3673H46.9604V15.7562H45.5549V14.6822H46.9604V13.0712H47.8974V14.6822H49.3028Z" fill="#111029"/>
<path d="M49.3028 27.5706V28.6446H47.8974V30.2557H46.9604V28.6446H45.5549V27.5706H46.9604V25.9595H47.8974V27.5706H49.3028Z" fill="#111029"/>
<path d="M49.3028 40.4589V41.5329H47.8974V43.1439H46.9604V41.5329H45.5549V40.4589H46.9604V38.8478H47.8974V40.4589H49.3028Z" fill="#111029"/>
<path d="M49.3028 53.3473V54.4213H47.8974V56.0323H46.9604V54.4213H45.5549V53.3473H46.9604V51.7362H47.8974V53.3473H49.3028Z" fill="#111029"/>
<path d="M49.3028 66.2356V67.3096H47.8974V68.9207H46.9604V67.3096H45.5549V66.2356H46.9604V64.6246H47.8974V66.2356H49.3028Z" fill="#111029"/>
<path d="M49.3028 79.124V80.198H47.8974V81.8091H46.9604V80.198H45.5549V79.124H46.9604V77.5129H47.8974V79.124H49.3028Z" fill="#111029"/>
<path d="M49.3028 92.0123V93.0863H47.8974V94.6974H46.9604V93.0863H45.5549V92.0123H46.9604V90.4012H47.8974V92.0123H49.3028Z" fill="#111029"/>
<path d="M49.3028 104.901V105.975H47.8974V107.586H46.9604V105.975H45.5549V104.901H46.9604V103.29H47.8974V104.901H49.3028Z" fill="#111029"/>
<path d="M49.3028 117.789V118.863H47.8974V120.474H46.9604V118.863H45.5549V117.789H46.9604V116.178H47.8974V117.789H49.3028Z" fill="#111029"/>
<path d="M49.3028 130.677V131.751H47.8974V133.362H46.9604V131.751H45.5549V130.677H46.9604V129.066H47.8974V130.677H49.3028Z" fill="#111029"/>
<path d="M49.3028 143.566V144.64H47.8974V146.251H46.9604V144.64H45.5549V143.566H46.9604V141.955H47.8974V143.566H49.3028Z" fill="#111029"/>
<path d="M49.3028 156.454V157.528H47.8974V159.139H46.9604V157.528H45.5549V156.454H46.9604V154.843H47.8974V156.454H49.3028Z" fill="#111029"/>
<path d="M49.3028 169.342V170.417H47.8974V172.028H46.9604V170.417H45.5549V169.342H46.9604V167.731H47.8974V169.342H49.3028Z" fill="#111029"/>
<path d="M49.3028 182.231V183.305H47.8974V184.916H46.9604V183.305H45.5549V182.231H46.9604V180.62H47.8974V182.231H49.3028Z" fill="#111029"/>
<path d="M49.3028 195.119V196.193H47.8974V197.804H46.9604V196.193H45.5549V195.119H46.9604V193.508H47.8974V195.119H49.3028Z" fill="#111029"/>
<path d="M49.3028 208.007V209.082H47.8974V210.693H46.9604V209.082H45.5549V208.007H46.9604V206.396H47.8974V208.007H49.3028Z" fill="#111029"/>
<path d="M49.3028 220.896V221.97H47.8974V223.581H46.9604V221.97H45.5549V220.896H46.9604V219.285H47.8974V220.896H49.3028Z" fill="#111029"/>
<path d="M49.3028 233.784V234.858H47.8974V236.469H46.9604V234.858H45.5549V233.784H46.9604V232.173H47.8974V233.784H49.3028Z" fill="#111029"/>
<path d="M49.3028 246.673V247.747H47.8974V249.358H46.9604V247.747H45.5549V246.673H46.9604V245.062H47.8974V246.673H49.3028Z" fill="#111029"/>
<path d="M38.0591 1.79385V2.86788H36.6536V4.47892H35.7166V2.86788H34.3112V1.79385H35.7166V0.1828H36.6536V1.79385H38.0591Z" fill="#111029"/>
<path d="M38.0591 14.6822V15.7562H36.6536V17.3673H35.7166V15.7562H34.3112V14.6822H35.7166V13.0712H36.6536V14.6822H38.0591Z" fill="#111029"/>
<path d="M38.0591 27.5706V28.6446H36.6536V30.2557H35.7166V28.6446H34.3112V27.5706H35.7166V25.9595H36.6536V27.5706H38.0591Z" fill="#111029"/>
<path d="M38.0591 40.4589V41.5329H36.6536V43.1439H35.7166V41.5329H34.3112V40.4589H35.7166V38.8478H36.6536V40.4589H38.0591Z" fill="#111029"/>
<path d="M38.0591 53.3473V54.4213H36.6536V56.0323H35.7166V54.4213H34.3112V53.3473H35.7166V51.7362H36.6536V53.3473H38.0591Z" fill="#111029"/>
<path d="M38.0591 66.2356V67.3096H36.6536V68.9207H35.7166V67.3096H34.3112V66.2356H35.7166V64.6246H36.6536V66.2356H38.0591Z" fill="#111029"/>
<path d="M38.0591 79.124V80.198H36.6536V81.8091H35.7166V80.198H34.3112V79.124H35.7166V77.5129H36.6536V79.124H38.0591Z" fill="#111029"/>
<path d="M38.0591 92.0123V93.0863H36.6536V94.6974H35.7166V93.0863H34.3112V92.0123H35.7166V90.4012H36.6536V92.0123H38.0591Z" fill="#111029"/>
<path d="M38.0591 104.901V105.975H36.6536V107.586H35.7166V105.975H34.3112V104.901H35.7166V103.29H36.6536V104.901H38.0591Z" fill="#111029"/>
<path d="M38.0591 117.789V118.863H36.6536V120.474H35.7166V118.863H34.3112V117.789H35.7166V116.178H36.6536V117.789H38.0591Z" fill="#111029"/>
<path d="M38.0591 130.677V131.751H36.6536V133.362H35.7166V131.751H34.3112V130.677H35.7166V129.066H36.6536V130.677H38.0591Z" fill="#111029"/>
<path d="M38.0591 143.566V144.64H36.6536V146.251H35.7166V144.64H34.3112V143.566H35.7166V141.955H36.6536V143.566H38.0591Z" fill="#111029"/>
<path d="M38.0591 156.454V157.528H36.6536V159.139H35.7166V157.528H34.3112V156.454H35.7166V154.843H36.6536V156.454H38.0591Z" fill="#111029"/>
<path d="M38.0591 169.342V170.417H36.6536V172.028H35.7166V170.417H34.3112V169.342H35.7166V167.731H36.6536V169.342H38.0591Z" fill="#111029"/>
<path d="M38.0591 182.231V183.305H36.6536V184.916H35.7166V183.305H34.3112V182.231H35.7166V180.62H36.6536V182.231H38.0591Z" fill="#111029"/>
<path d="M38.0591 195.119V196.193H36.6536V197.804H35.7166V196.193H34.3112V195.119H35.7166V193.508H36.6536V195.119H38.0591Z" fill="#111029"/>
<path d="M38.0591 208.007V209.082H36.6536V210.693H35.7166V209.082H34.3112V208.007H35.7166V206.396H36.6536V208.007H38.0591Z" fill="#111029"/>
<path d="M38.0591 220.896V221.97H36.6536V223.581H35.7166V221.97H34.3112V220.896H35.7166V219.285H36.6536V220.896H38.0591Z" fill="#111029"/>
<path d="M38.0591 233.784V234.858H36.6536V236.469H35.7166V234.858H34.3112V233.784H35.7166V232.173H36.6536V233.784H38.0591Z" fill="#111029"/>
<path d="M38.0591 246.673V247.747H36.6536V249.358H35.7166V247.747H34.3112V246.673H35.7166V245.062H36.6536V246.673H38.0591Z" fill="#111029"/>
<path d="M26.8154 1.79385V2.86788H25.4099V4.47892H24.473V2.86788H23.0675V1.79385H24.473V0.1828H25.4099V1.79385H26.8154Z" fill="#111029"/>
<path d="M26.8154 14.6822V15.7562H25.4099V17.3673H24.473V15.7562H23.0675V14.6822H24.473V13.0712H25.4099V14.6822H26.8154Z" fill="#111029"/>
<path d="M26.8154 27.5706V28.6446H25.4099V30.2557H24.473V28.6446H23.0675V27.5706H24.473V25.9595H25.4099V27.5706H26.8154Z" fill="#111029"/>
<path d="M26.8154 40.4589V41.5329H25.4099V43.1439H24.473V41.5329H23.0675V40.4589H24.473V38.8478H25.4099V40.4589H26.8154Z" fill="#111029"/>
<path d="M26.8154 53.3473V54.4213H25.4099V56.0323H24.473V54.4213H23.0675V53.3473H24.473V51.7362H25.4099V53.3473H26.8154Z" fill="#111029"/>
<path d="M26.8154 66.2356V67.3096H25.4099V68.9207H24.473V67.3096H23.0675V66.2356H24.473V64.6246H25.4099V66.2356H26.8154Z" fill="#111029"/>
<path d="M26.8154 79.124V80.198H25.4099V81.8091H24.473V80.198H23.0675V79.124H24.473V77.5129H25.4099V79.124H26.8154Z" fill="#111029"/>
<path d="M26.8154 92.0123V93.0863H25.4099V94.6974H24.473V93.0863H23.0675V92.0123H24.473V90.4012H25.4099V92.0123H26.8154Z" fill="#111029"/>
<path d="M26.8154 104.901V105.975H25.4099V107.586H24.473V105.975H23.0675V104.901H24.473V103.29H25.4099V104.901H26.8154Z" fill="#111029"/>
<path d="M26.8154 117.789V118.863H25.4099V120.474H24.473V118.863H23.0675V117.789H24.473V116.178H25.4099V117.789H26.8154Z" fill="#111029"/>
<path d="M26.8154 130.677V131.751H25.4099V133.362H24.473V131.751H23.0675V130.677H24.473V129.066H25.4099V130.677H26.8154Z" fill="#111029"/>
<path d="M26.8154 143.566V144.64H25.4099V146.251H24.473V144.64H23.0675V143.566H24.473V141.955H25.4099V143.566H26.8154Z" fill="#111029"/>
<path d="M26.8154 156.454V157.528H25.4099V159.139H24.473V157.528H23.0675V156.454H24.473V154.843H25.4099V156.454H26.8154Z" fill="#111029"/>
<path d="M26.8154 169.342V170.417H25.4099V172.028H24.473V170.417H23.0675V169.342H24.473V167.731H25.4099V169.342H26.8154Z" fill="#111029"/>
<path d="M26.8154 182.231V183.305H25.4099V184.916H24.473V183.305H23.0675V182.231H24.473V180.62H25.4099V182.231H26.8154Z" fill="#111029"/>
<path d="M26.8154 195.119V196.193H25.4099V197.804H24.473V196.193H23.0675V195.119H24.473V193.508H25.4099V195.119H26.8154Z" fill="#111029"/>
<path d="M26.8154 208.007V209.082H25.4099V210.693H24.473V209.082H23.0675V208.007H24.473V206.396H25.4099V208.007H26.8154Z" fill="#111029"/>
<path d="M26.8154 220.896V221.97H25.4099V223.581H24.473V221.97H23.0675V220.896H24.473V219.285H25.4099V220.896H26.8154Z" fill="#111029"/>
<path d="M26.8154 233.784V234.858H25.4099V236.469H24.473V234.858H23.0675V233.784H24.473V232.173H25.4099V233.784H26.8154Z" fill="#111029"/>
<path d="M26.8154 246.673V247.747H25.4099V249.358H24.473V247.747H23.0675V246.673H24.473V245.062H25.4099V246.673H26.8154Z" fill="#111029"/>
<path d="M15.5716 1.79385V2.86788H14.1662V4.47892H13.2292V2.86788H11.8237V1.79385H13.2292V0.1828H14.1662V1.79385H15.5716Z" fill="#111029"/>
<path d="M15.5716 14.6822V15.7562H14.1662V17.3673H13.2292V15.7562H11.8237V14.6822H13.2292V13.0712H14.1662V14.6822H15.5716Z" fill="#111029"/>
<path d="M15.5716 27.5706V28.6446H14.1662V30.2557H13.2292V28.6446H11.8237V27.5706H13.2292V25.9595H14.1662V27.5706H15.5716Z" fill="#111029"/>
<path d="M15.5716 40.4589V41.5329H14.1662V43.1439H13.2292V41.5329H11.8237V40.4589H13.2292V38.8478H14.1662V40.4589H15.5716Z" fill="#111029"/>
<path d="M15.5716 53.3473V54.4213H14.1662V56.0323H13.2292V54.4213H11.8237V53.3473H13.2292V51.7362H14.1662V53.3473H15.5716Z" fill="#111029"/>
<path d="M15.5716 66.2356V67.3096H14.1662V68.9207H13.2292V67.3096H11.8237V66.2356H13.2292V64.6246H14.1662V66.2356H15.5716Z" fill="#111029"/>
<path d="M15.5716 79.124V80.198H14.1662V81.8091H13.2292V80.198H11.8237V79.124H13.2292V77.5129H14.1662V79.124H15.5716Z" fill="#111029"/>
<path d="M15.5716 92.0123V93.0863H14.1662V94.6974H13.2292V93.0863H11.8237V92.0123H13.2292V90.4012H14.1662V92.0123H15.5716Z" fill="#111029"/>
<path d="M15.5716 104.901V105.975H14.1662V107.586H13.2292V105.975H11.8237V104.901H13.2292V103.29H14.1662V104.901H15.5716Z" fill="#111029"/>
<path d="M15.5716 117.789V118.863H14.1662V120.474H13.2292V118.863H11.8237V117.789H13.2292V116.178H14.1662V117.789H15.5716Z" fill="#111029"/>
<path d="M15.5716 130.677V131.751H14.1662V133.362H13.2292V131.751H11.8237V130.677H13.2292V129.066H14.1662V130.677H15.5716Z" fill="#111029"/>
<path d="M15.5716 143.566V144.64H14.1662V146.251H13.2292V144.64H11.8237V143.566H13.2292V141.955H14.1662V143.566H15.5716Z" fill="#111029"/>
<path d="M15.5716 156.454V157.528H14.1662V159.139H13.2292V157.528H11.8237V156.454H13.2292V154.843H14.1662V156.454H15.5716Z" fill="#111029"/>
<path d="M15.5716 169.342V170.417H14.1662V172.028H13.2292V170.417H11.8237V169.342H13.2292V167.731H14.1662V169.342H15.5716Z" fill="#111029"/>
<path d="M15.5716 182.231V183.305H14.1662V184.916H13.2292V183.305H11.8237V182.231H13.2292V180.62H14.1662V182.231H15.5716Z" fill="#111029"/>
<path d="M15.5716 195.119V196.193H14.1662V197.804H13.2292V196.193H11.8237V195.119H13.2292V193.508H14.1662V195.119H15.5716Z" fill="#111029"/>
<path d="M15.5716 208.007V209.082H14.1662V210.693H13.2292V209.082H11.8237V208.007H13.2292V206.396H14.1662V208.007H15.5716Z" fill="#111029"/>
<path d="M15.5716 220.896V221.97H14.1662V223.581H13.2292V221.97H11.8237V220.896H13.2292V219.285H14.1662V220.896H15.5716Z" fill="#111029"/>
<path d="M15.5716 233.784V234.858H14.1662V236.469H13.2292V234.858H11.8237V233.784H13.2292V232.173H14.1662V233.784H15.5716Z" fill="#111029"/>
<path d="M15.5716 246.673V247.747H14.1662V249.358H13.2292V247.747H11.8237V246.673H13.2292V245.062H14.1662V246.673H15.5716Z" fill="#111029"/>
<path d="M4.32798 1.79385V2.86788H2.92252V4.47892H1.98554V2.86788H0.580078V1.79385H1.98554V0.1828H2.92252V1.79385H4.32798Z" fill="#111029"/>
<path d="M4.32798 14.6822V15.7562H2.92252V17.3673H1.98554V15.7562H0.580078V14.6822H1.98554V13.0712H2.92252V14.6822H4.32798Z" fill="#111029"/>
<path d="M4.32798 27.5706V28.6446H2.92252V30.2557H1.98554V28.6446H0.580078V27.5706H1.98554V25.9595H2.92252V27.5706H4.32798Z" fill="#111029"/>
<path d="M4.32798 40.4589V41.5329H2.92252V43.1439H1.98554V41.5329H0.580078V40.4589H1.98554V38.8478H2.92252V40.4589H4.32798Z" fill="#111029"/>
<path d="M4.32798 53.3473V54.4213H2.92252V56.0323H1.98554V54.4213H0.580078V53.3473H1.98554V51.7362H2.92252V53.3473H4.32798Z" fill="#111029"/>
<path d="M4.32798 66.2356V67.3096H2.92252V68.9207H1.98554V67.3096H0.580078V66.2356H1.98554V64.6246H2.92252V66.2356H4.32798Z" fill="#111029"/>
<path d="M4.32798 79.124V80.198H2.92252V81.8091H1.98554V80.198H0.580078V79.124H1.98554V77.5129H2.92252V79.124H4.32798Z" fill="#111029"/>
<path d="M4.32798 92.0123V93.0863H2.92252V94.6974H1.98554V93.0863H0.580078V92.0123H1.98554V90.4012H2.92252V92.0123H4.32798Z" fill="#111029"/>
<path d="M4.32798 104.901V105.975H2.92252V107.586H1.98554V105.975H0.580078V104.901H1.98554V103.29H2.92252V104.901H4.32798Z" fill="#111029"/>
<path d="M4.32798 117.789V118.863H2.92252V120.474H1.98554V118.863H0.580078V117.789H1.98554V116.178H2.92252V117.789H4.32798Z" fill="#111029"/>
<path d="M4.32798 130.677V131.751H2.92252V133.362H1.98554V131.751H0.580078V130.677H1.98554V129.066H2.92252V130.677H4.32798Z" fill="#111029"/>
<path d="M4.32798 143.566V144.64H2.92252V146.251H1.98554V144.64H0.580078V143.566H1.98554V141.955H2.92252V143.566H4.32798Z" fill="#111029"/>
<path d="M4.32798 156.454V157.528H2.92252V159.139H1.98554V157.528H0.580078V156.454H1.98554V154.843H2.92252V156.454H4.32798Z" fill="#111029"/>
<path d="M4.32798 169.342V170.417H2.92252V172.028H1.98554V170.417H0.580078V169.342H1.98554V167.731H2.92252V169.342H4.32798Z" fill="#111029"/>
<path d="M4.32798 182.231V183.305H2.92252V184.916H1.98554V183.305H0.580078V182.231H1.98554V180.62H2.92252V182.231H4.32798Z" fill="#111029"/>
<path d="M4.32798 195.119V196.193H2.92252V197.804H1.98554V196.193H0.580078V195.119H1.98554V193.508H2.92252V195.119H4.32798Z" fill="#111029"/>
<path d="M4.32798 208.007V209.082H2.92252V210.693H1.98554V209.082H0.580078V208.007H1.98554V206.396H2.92252V208.007H4.32798Z" fill="#111029"/>
<path d="M4.32798 220.896V221.97H2.92252V223.581H1.98554V221.97H0.580078V220.896H1.98554V219.285H2.92252V220.896H4.32798Z" fill="#111029"/>
<path d="M4.32798 233.784V234.858H2.92252V236.469H1.98554V234.858H0.580078V233.784H1.98554V232.173H2.92252V233.784H4.32798Z" fill="#111029"/>
<path d="M4.32798 246.673V247.747H2.92252V249.358H1.98554V247.747H0.580078V246.673H1.98554V245.062H2.92252V246.673H4.32798Z" fill="#111029"/>
</g>
</svg>
