<svg width="126" height="35" viewBox="0 0 126 35" fill="none" xmlns="http://www.w3.org/2000/svg">
<path fill-rule="evenodd" clip-rule="evenodd" d="M121.017 26.2234C118.894 26.2234 117.018 27.8202 117.018 30.1823C117.018 32.5397 118.894 34.1381 121.017 34.1381C123.147 34.1381 125.019 32.5397 125.019 30.1823C125.019 27.8202 123.146 26.2234 121.017 26.2234ZM121.02 26.8612C122.893 26.8612 124.252 28.2651 124.252 30.1823C124.252 32.0941 122.893 33.4979 121.02 33.4979C119.15 33.4979 117.789 32.0964 117.789 30.1823C117.789 28.2651 119.15 26.8612 121.02 26.8612ZM120.171 32.5218V30.3526L120.175 30.3542V30.3518H120.855C121.319 30.3518 121.536 30.4996 121.659 30.9048C121.723 31.1361 121.756 31.3868 121.788 31.6332C121.83 31.9547 121.871 32.2689 121.981 32.5234H122.81C122.678 32.373 122.597 31.7997 122.536 31.3705C122.527 31.3024 122.517 31.238 122.509 31.1794C122.425 30.5191 122.277 30.1582 121.872 30.0936V30.0734C122.338 30.0119 122.7 29.5881 122.7 29.0529C122.7 28.1842 122.232 27.7385 121.211 27.7385H119.47V32.5218H120.171ZM121.039 29.7345C121.72 29.7345 121.914 29.3721 121.914 29.0524C121.914 28.6744 121.72 28.3757 121.039 28.3757H120.171V29.7361H121.039V29.7345Z" fill="#ABAFC7"/>
<path fill-rule="evenodd" clip-rule="evenodd" d="M65.9036 0.18042V33.4483H84.3665V26.0143H73.7241V19.4654H84.3665L84.3665 12.3303L93.7636 22.891L84.3665 33.4485H93.9813L98.5508 28.2787L103.161 33.4485H113.117L103.637 22.8467L112.987 12.3303H103.419L98.9381 17.4605L94.2816 12.3303H84.3665L84.3665 12.3301H73.7241V7.59575H84.3665V0.18042H65.9036Z" fill="#ABAFC7"/>
<path fill-rule="evenodd" clip-rule="evenodd" d="M58.1118 0.181885V13.7953H58.0254C56.3011 11.8136 54.1459 11.1229 51.6469 11.1229C46.526 11.1229 42.6682 14.6066 41.3141 19.2087C39.7694 14.1368 35.7864 11.028 29.8816 11.028C25.085 11.028 21.2988 13.1801 19.3209 16.6879V12.3292H9.40811V7.59644H20.227V0.181885H0.571777V33.4482H9.40811V19.4653H18.2157C17.9444 20.5406 17.8088 21.6456 17.812 22.7546C17.812 29.6908 23.1126 34.5651 29.88 34.5651C35.5687 34.5651 39.3207 31.8919 41.3032 27.0253H33.73C32.7064 28.4899 31.9287 28.9223 29.8808 28.9223C27.507 28.9223 25.4583 26.8503 25.4583 24.3972H40.8786C41.5474 29.9078 45.8408 34.6592 51.7332 34.6592C54.275 34.6592 56.6021 33.4093 58.0247 31.2977H58.1102V33.4529H65.9012V0.181885H58.1118ZM25.7041 19.5649C26.1964 17.4509 27.8352 16.0696 29.8808 16.0696C32.1332 16.0696 33.6888 17.4081 34.0971 19.5649H25.7041ZM48.7287 22.9171C48.7287 25.7109 50.5129 28.3857 53.3837 28.3857C56.5274 28.3857 57.8854 25.7467 57.8854 22.9171C57.8854 19.932 56.6029 17.0612 53.3837 17.0612C50.2811 17.0612 48.7287 19.9304 48.7287 22.9171Z" fill="#ABAFC7"/>
</svg>
