<svg width="161" height="35" viewBox="0 0 161 35" fill="none" xmlns="http://www.w3.org/2000/svg">
<path fill-rule="evenodd" clip-rule="evenodd" d="M32.8029 34.3893H22.9867V16.6443H32.8029V34.3893ZM158.144 34.3893H148.327V16.6443H158.144V34.3893Z" fill="#ABAFC7"/>
<path fill-rule="evenodd" clip-rule="evenodd" d="M0.351929 0.45129H153.764C156.038 0.413996 158.155 1.60584 159.303 3.56922C160.451 5.5326 160.45 7.96235 159.302 9.92557C158.154 11.8888 156.037 13.0804 153.763 13.0428L17.3414 13.0393V34.3091H0.351929V0.45129ZM17.3423 8.7497H134.918C135.644 8.76468 136.32 8.38636 136.687 7.7607C137.054 7.13504 137.054 6.35985 136.687 5.73419C136.32 5.10854 135.644 4.73022 134.918 4.74519L17.3423 4.73409V8.7497Z" fill="#ABAFC7"/>
<path fill-rule="evenodd" clip-rule="evenodd" d="M63.5696 28.0201C65.5749 27.1118 66.8434 25.0921 66.8434 22.7479C66.8434 19.5536 64.3311 16.6443 60.0517 16.6443H39.8533V34.3893H49.6695V28.6638H52.8792L55.8363 34.3893H66.8477L63.5696 28.0201ZM55.2703 24.3656H49.6695V20.6095L55.2703 20.6283C56.3024 20.6283 57.139 21.4649 57.139 22.497C57.139 23.529 56.3024 24.3656 55.2703 24.3656ZM94.6513 34.3893H73.0042V16.6443H94.6513V20.9237H82.8196V23.535H94.6513V27.8136H82.8196V30.4249H94.6513V34.3893ZM111.159 16.6443H101.342V34.3893H121.101V30.4249H111.159V16.6443ZM124.479 16.6443H134.294V30.4249H144.237V34.3893H124.479V16.6443Z" fill="#ABAFC7"/>
</svg>
