<svg width="169" height="36" viewBox="0 0 169 36" fill="none" xmlns="http://www.w3.org/2000/svg">
<path fill-rule="evenodd" clip-rule="evenodd" d="M13.8227 25.7954C16.51 30.2014 21.4385 33.1575 26.9236 33.1575C35.0281 33.1575 39.4895 26.1634 39.4895 26.1634L40.0637 28.0264C36.3116 32.9063 29.6086 35.846 22.1094 35.846C13.4752 35.846 6.02887 31.7271 2.60258 25.7873C1.31254 23.5501 0.592407 21.0512 0.592407 18.4194C0.592407 8.795 10.2248 0.993408 22.109 0.993408C30.5059 0.993408 37.2665 4.59004 40.8155 9.80226L26.7263 18.2391L34.767 5.89248C32.4666 4.44571 29.6443 3.09093 26.7263 3.09093C18.4774 3.09093 11.6834 9.97447 11.6834 18.223C11.6834 20.9868 12.4682 23.5836 13.8227 25.7954ZM51.5478 25.7904C51.5055 26.0719 51.4844 26.3561 51.4846 26.6407C51.4846 29.7718 54.0232 32.3107 57.1546 32.3107C60.286 32.3107 62.8243 29.7721 62.8243 26.6407C62.8244 26.355 62.8032 26.0698 62.7608 25.7873C62.3507 23.0626 59.997 20.971 57.1543 20.971C54.3118 20.971 51.9578 23.0626 51.5478 25.7904ZM75.4044 35.2795L72.5865 25.7873L68.388 11.6458C68.388 11.6458 65.7355 4.42279 57.3649 7.4681C48.9943 10.5137 47.1068 11.6458 47.1068 11.6458H58.4517L61.1443 20.6479C59.0731 18.8183 56.0417 17.6642 52.6644 17.6642C46.714 17.6642 41.8379 21.2469 41.3937 25.7873C41.3721 26.0181 41.3609 26.2442 41.3609 26.4719C41.3609 31.3365 46.4213 35.2795 52.6644 35.2795C57.8821 35.2795 62.2745 32.525 63.576 28.7797L65.5196 35.2795H75.4044ZM104.191 25.7876V35.2797H94.0198V14.4246C94.0198 12.89 92.7758 11.646 91.2412 11.646C90.0956 11.6457 89.0674 12.3485 88.6515 13.4158V35.2797H78.669V11.646H72.8473C72.8473 11.646 80.9462 6.7395 83.7546 6.7395C86.4161 6.7395 88.386 8.78437 88.6323 11.3892C89.3863 10.9825 90.1392 10.5601 90.8824 10.143C93.9998 8.39373 96.9477 6.7395 99.1056 6.7395C101.867 6.7395 104.114 8.93986 104.191 11.6832V25.7876ZM121.275 30.4661L119.859 25.7875L115.583 11.6457C115.815 9.8015 117.634 8.01929 119.541 8.01929C121.468 8.01929 123.054 9.47411 123.262 11.3455L127.488 25.7875L128.691 29.8999C128.708 30.0417 128.716 30.1857 128.716 30.3323C128.716 32.3997 127.04 34.0754 124.973 34.0754C122.95 34.0754 121.302 32.4713 121.275 30.4661ZM136.046 25.7894C134.12 31.6301 128.619 35.8462 122.132 35.8462C115.645 35.8462 110.144 31.6304 108.217 25.7875C107.729 24.3067 107.482 22.7573 107.483 21.1982C107.483 13.1082 114.042 6.55054 122.132 6.55054C130.222 6.55054 136.781 13.1082 136.781 21.1982C136.781 22.8017 136.523 24.3454 136.046 25.7894ZM152.887 35.2797V25.7876V13.4158C153.303 12.3485 154.331 11.6457 155.476 11.646C157.011 11.646 158.255 12.89 158.255 14.4246V35.2797H168.426V11.6832C168.35 8.93986 166.102 6.7395 163.341 6.7395C161.183 6.7395 158.236 8.39334 155.119 10.1424C154.376 10.5596 153.623 10.9823 152.868 11.3892C152.621 8.78437 150.652 6.7395 147.99 6.7395C145.181 6.7395 137.322 11.646 137.322 11.646H142.904V35.2797H152.887Z" fill="#ABAFC7"/>
</svg>
