<svg width="190" height="35" viewBox="0 0 190 35" fill="none" xmlns="http://www.w3.org/2000/svg">
<path fill-rule="evenodd" clip-rule="evenodd" d="M14.0845 26.1228C23.5468 26.1228 29.5295 21.2478 29.5295 12.7556C29.529 3.42433 23.1287 0.083252 12.6931 0.083252C8.65718 0.083252 3.78697 0.360887 0.309204 0.778522V34.0616H10.4658V26.1228H14.0845ZM19.5128 12.8935C19.5128 17.2112 17.4247 20.1356 12.1363 20.1356H10.4653V6.38441C11.0594 6.35083 11.6142 6.35083 12.1363 6.35083C17.1437 6.35036 19.5128 8.71711 19.5128 12.8935ZM142.792 20.1356C148.082 20.1356 150.167 17.2112 150.167 12.8935C150.167 8.71711 147.8 6.35036 142.792 6.35083C142.272 6.35083 141.716 6.35083 141.127 6.38441V20.1356H142.792ZM144.745 26.1228C154.2 26.1228 160.186 21.2478 160.186 12.7556C160.186 3.42433 153.787 0.083252 143.35 0.083252C139.315 0.083252 134.442 0.360887 130.964 0.778522V34.0616H141.126V26.1228H144.745ZM178.133 6.62636C175.214 6.62636 173.403 7.46305 173.403 9.27264C173.403 11.4321 176.068 12.363 179.223 13.4649C183.8 15.0635 189.408 17.0222 189.408 23.6141C189.408 31.9706 182.449 34.7564 173.964 34.7564C170.623 34.7564 166.449 34.2012 163.39 33.0873L162.274 25.4261C165.335 26.9571 170.487 28.0705 173.821 28.0705C177.58 28.0705 179.113 26.9571 179.113 24.8703C179.113 22.6694 176.507 21.749 173.408 20.6542C168.859 19.0476 163.248 17.0656 163.248 10.1108C163.248 3.32217 168.812 0.083252 177.022 0.083252C181.334 0.083252 183.7 0.500887 186.345 1.05805L187.179 8.30163C184.815 7.32305 181.334 6.62636 178.133 6.62636ZM123.314 0.778522H113.157V34.0616H123.314V0.778522ZM71.9684 0.778522H82.126V34.0616H71.9684V0.778522ZM99.7972 27.3752V0.778522H89.6396V34.0616H108.008L109.538 27.3752H99.7972ZM54.2977 0.778522H64.4552L64.4547 34.0616H54.2972V20.9702H43.722V34.0616H33.563V0.778522H43.7224V14.0076H54.2977V0.778522Z" fill="#ABAFC7"/>
</svg>
