<svg width="120" height="16" viewBox="0 0 120 16" fill="none" xmlns="http://www.w3.org/2000/svg">
<path d="M16.017 5.78721C15.9643 5.62591 15.8261 5.51069 15.6582 5.48436L10.6545 4.7733L8.40278 0.246895C8.32707 0.0954657 8.17235 0 8.00446 0C7.83657 0 7.68185 0.0954656 7.60613 0.250187L5.38408 4.78976L0.380347 5.53374C0.212459 5.56007 0.0741979 5.67529 0.0215271 5.83659C-0.0311438 5.9979 0.0149432 6.17566 0.136745 6.29088L3.76774 9.80995L2.9283 14.7939C2.89867 14.9618 2.9678 15.1297 3.10607 15.2285C3.18178 15.2844 3.27395 15.3141 3.36613 15.3141C3.43855 15.3141 3.50768 15.2976 3.57352 15.2614L8.04067 12.8945L12.521 15.2351C12.5868 15.268 12.656 15.2844 12.7251 15.2844C12.9687 15.2844 13.1695 15.0836 13.1695 14.84C13.1695 14.8038 13.1662 14.7709 13.1563 14.738L12.2906 9.78362L15.8985 6.24479C16.0269 6.12628 16.0697 5.94852 16.017 5.78721Z" fill="#4C40F7"/>
<path d="M42.0072 5.78721C41.9546 5.62591 41.8163 5.51069 41.6484 5.48436L36.6447 4.7733L34.393 0.246895C34.3173 0.0954657 34.1626 0 33.9947 0C33.8268 0 33.6721 0.0954656 33.5964 0.250187L31.3743 4.78976L26.3706 5.53374C26.2027 5.56007 26.0644 5.67529 26.0118 5.83659C25.9591 5.9979 26.0052 6.17566 26.127 6.29088L29.758 9.80995L28.9185 14.7939C28.8889 14.9618 28.958 15.1297 29.0963 15.2285C29.172 15.2844 29.2642 15.3141 29.3564 15.3141C29.4288 15.3141 29.4979 15.2976 29.5638 15.2614L34.0309 12.8945L38.5112 15.2351C38.5771 15.268 38.6462 15.2844 38.7153 15.2844C38.9589 15.2844 39.1597 15.0836 39.1597 14.84C39.1597 14.8038 39.1564 14.7709 39.1466 14.738L38.2808 9.78362L41.8887 6.24479C42.0171 6.12628 42.0599 5.94852 42.0072 5.78721Z" fill="#4C40F7"/>
<path d="M67.9975 5.78721C67.9448 5.62591 67.8066 5.51069 67.6387 5.48436L62.6349 4.7733L60.3833 0.246895C60.3075 0.0954657 60.1528 0 59.9849 0C59.817 0 59.6623 0.0954656 59.5866 0.250187L57.3646 4.78976L52.3608 5.53374C52.1929 5.56007 52.0547 5.67529 52.002 5.83659C51.9493 5.9979 51.9954 6.17566 52.1172 6.29088L55.7482 9.80995L54.9088 14.7939C54.8791 14.9618 54.9483 15.1297 55.0865 15.2285C55.1622 15.2844 55.2544 15.3141 55.3466 15.3141C55.419 15.3141 55.4882 15.2976 55.554 15.2614L60.0211 12.8945L64.5015 15.2351C64.5673 15.268 64.6364 15.2844 64.7056 15.2844C64.9492 15.2844 65.15 15.0836 65.15 14.84C65.15 14.8038 65.1467 14.7709 65.1368 14.738L64.271 9.78362L67.879 6.24479C68.0074 6.12628 68.0502 5.94852 67.9975 5.78721Z" fill="#4C40F7"/>
<path d="M93.9877 5.78721C93.935 5.62591 93.7968 5.51069 93.6289 5.48436L88.6252 4.7733L86.3735 0.246895C86.2978 0.0954657 86.143 0 85.9752 0C85.8073 0 85.6526 0.0954656 85.5768 0.250187L83.3548 4.78976L78.3511 5.53374C78.1832 5.56007 78.0449 5.67529 77.9922 5.83659C77.9396 5.9979 77.9856 6.17566 78.1074 6.29088L81.7384 9.80995L80.899 14.7939C80.8694 14.9618 80.9385 15.1297 81.0768 15.2285C81.1525 15.2844 81.2447 15.3141 81.3368 15.3141C81.4093 15.3141 81.4784 15.2976 81.5442 15.2614L86.0114 12.8945L90.4917 15.2351C90.5575 15.268 90.6267 15.2844 90.6958 15.2844C90.9394 15.2844 91.1402 15.0836 91.1402 14.84C91.1402 14.8038 91.1369 14.7709 91.127 14.738L90.2613 9.78362L93.8692 6.24479C93.9976 6.12628 94.0404 5.94852 93.9877 5.78721Z" fill="#4C40F7"/>
<path d="M119.978 5.78721C119.925 5.62591 119.787 5.51069 119.619 5.48436L114.615 4.7733L112.364 0.246895C112.288 0.0954657 112.133 0 111.965 0C111.798 0 111.643 0.0954656 111.567 0.250187L109.345 4.78976L104.341 5.53374C104.173 5.56007 104.035 5.67529 103.982 5.83659C103.93 5.9979 103.976 6.17566 104.098 6.29088L107.729 9.80995L106.889 14.7939C106.86 14.9618 106.929 15.1297 107.067 15.2285C107.143 15.2844 107.235 15.3141 107.327 15.3141C107.399 15.3141 107.469 15.2976 107.534 15.2614L112.002 12.8945L116.482 15.2351C116.548 15.268 116.617 15.2844 116.686 15.2844C116.93 15.2844 117.13 15.0836 117.13 14.84C117.13 14.8038 117.127 14.7709 117.117 14.738L116.251 9.78362L119.859 6.24479C119.988 6.12628 120.031 5.94852 119.978 5.78721Z" fill="#4C40F7"/>
</svg>
